<?xml version="1.0" standalone="no"?>
<!DOCTYPE svg PUBLIC "-//W3C//DTD SVG 20010904//EN"
 "http://www.w3.org/TR/2001/REC-SVG-20010904/DTD/svg10.dtd">
<svg version="1.0" xmlns="http://www.w3.org/2000/svg"
 width="700.000000pt" height="700.000000pt" viewBox="0 0 700.000000 700.000000"
 preserveAspectRatio="xMidYMid meet">
<metadata>
Created by potrace 1.11, written by Peter Selinger 2001-2013
</metadata>
<g transform="translate(0.000000,700.000000) scale(0.100000,-0.100000)"
fill="#000000" stroke="none">
<path d="M4150 6969 c-290 -31 -522 -278 -534 -567 -6 -145 50 -311 139 -410
l46 -51 -30 -78 c-16 -43 -43 -116 -61 -163 -17 -47 -35 -88 -38 -92 -4 -4
-43 -2 -87 3 -44 5 -118 12 -165 15 l-85 4 -67 -113 c-211 -355 -373 -775
-489 -1260 -16 -67 -31 -131 -34 -142 -12 -49 -56 -281 -75 -392 -11 -67 -23
-130 -25 -141 -3 -15 25 -33 158 -102 246 -126 560 -271 567 -263 4 5 31 64
60 133 309 732 698 1353 1119 1789 50 52 91 97 91 101 0 14 -228 132 -362 188
-51 21 -93 43 -93 48 0 5 24 74 53 154 l54 146 61 11 c174 33 353 185 420 357
42 108 57 293 29 366 -5 14 -10 27 -10 30 -1 7 -12 39 -25 73 -5 16 -27 54
-47 85 -123 191 -344 296 -570 271z"/>
<path d="M2890 5605 c-175 -24 -532 -117 -564 -146 -6 -5 -16 -9 -23 -9 -27 0
-275 -116 -378 -177 -106 -63 -248 -160 -335 -230 -161 -129 -460 -444 -460
-486 0 -5 22 -30 49 -56 234 -223 490 -405 856 -611 279 -157 383 -211 388
-203 3 5 8 24 11 43 3 19 8 49 11 65 3 17 12 66 20 110 8 44 16 91 19 105 46
264 211 844 290 1024 14 32 26 63 26 68 0 19 144 322 197 416 29 52 53 96 53
98 0 7 -60 3 -160 -11z"/>
<path d="M4724 4978 c-241 -247 -472 -559 -680 -918 -62 -106 -288 -549 -337
-661 -49 -109 -117 -272 -117 -279 0 -13 165 -76 360 -138 190 -61 458 -120
615 -137 28 -3 66 -7 85 -10 58 -8 150 -17 209 -21 77 -5 521 -5 547 0 12 3
62 7 110 11 96 7 101 7 279 33 l120 17 1 120 c1 137 -12 306 -32 410 -29 158
-61 286 -99 400 -13 39 -22 70 -22 71 1 0 31 14 67 31 36 17 104 49 153 72 96
45 109 48 126 27 17 -20 110 -63 175 -79 72 -19 200 -19 273 0 208 53 375 226
419 432 27 130 12 246 -49 372 -188 386 -732 423 -976 65 -51 -75 -88 -180
-93 -262 l-2 -42 -154 -71 c-85 -39 -157 -71 -161 -71 -3 0 -32 40 -63 88
-141 214 -342 437 -538 596 -45 36 -85 66 -89 66 -4 0 -61 -55 -127 -122z"/>
<path d="M966 4319 c-18 -30 -18 -31 15 -112 149 -375 466 -740 995 -1149 97
-75 328 -238 331 -234 5 5 10 34 17 106 4 36 8 76 10 90 2 14 7 54 11 90 4 36
9 74 11 85 6 30 18 146 18 178 1 27 -8 33 -109 86 -500 263 -887 528 -1194
818 -42 40 -78 73 -81 73 -3 0 -14 -14 -24 -31z"/>
<path d="M800 3988 c0 -7 -7 -26 -15 -41 -33 -64 -116 -349 -139 -477 -3 -19
-8 -46 -11 -59 -2 -13 -7 -49 -11 -80 -3 -31 -8 -59 -10 -62 -2 -3 -6 -69 -10
-145 l-7 -140 49 -40 c27 -22 72 -55 99 -73 61 -40 279 -147 320 -157 17 -4
35 -10 40 -13 14 -9 62 -25 185 -59 94 -27 129 -36 180 -47 68 -15 507 -108
590 -124 58 -12 114 -23 125 -25 11 -3 35 -8 53 -12 17 -3 32 -3 33 2 0 5 2
18 4 29 8 38 9 91 2 101 -3 6 -25 24 -49 40 -82 56 -384 277 -473 347 -446
352 -745 676 -905 980 -33 64 -50 82 -50 55z"/>
<path d="M2599 3268 c0 -13 -2 -30 -4 -38 -1 -8 -6 -46 -9 -83 -4 -37 -9 -77
-11 -88 -2 -11 -7 -50 -10 -87 -4 -37 -8 -78 -10 -92 -2 -14 -6 -54 -10 -90
-3 -36 -8 -77 -11 -92 -5 -27 6 -35 252 -198 142 -93 261 -167 264 -162 4 4
33 88 64 187 32 98 82 242 112 319 39 103 50 142 41 148 -7 4 -86 40 -177 79
-91 39 -207 91 -259 115 -51 24 -95 44 -97 44 -2 0 -32 14 -66 30 -34 17 -63
30 -65 30 -2 0 -3 -10 -4 -22z"/>
<path d="M3470 2828 c-12 -35 -28 -76 -36 -93 -26 -58 -145 -428 -139 -433 14
-14 603 -4 765 13 19 2 69 7 110 10 41 4 82 9 91 10 9 2 40 6 70 10 30 3 61 8
69 10 8 2 40 7 70 10 135 16 506 100 695 157 55 16 106 30 113 31 6 0 12 3 12
7 0 3 -78 6 -172 6 -158 0 -368 9 -443 19 -48 6 -116 15 -165 21 -235 28 -589
123 -861 230 -75 30 -141 54 -146 54 -6 0 -20 -28 -33 -62z"/>
<path d="M613 2673 c3 -5 8 -33 11 -63 13 -120 55 -305 103 -453 14 -43 21
-82 17 -87 -5 -4 -147 -67 -315 -139 -215 -93 -317 -142 -343 -165 -108 -100
-110 -279 -4 -378 56 -52 122 -75 203 -70 33 2 233 81 460 182 168 75 229 99
235 93 4 -5 33 -48 65 -97 154 -236 419 -515 625 -659 l21 -15 -19 -53 c-11
-30 -54 -145 -96 -256 -92 -242 -97 -294 -40 -385 85 -134 257 -166 381 -72
47 36 74 87 154 299 39 105 73 192 75 194 2 2 23 -5 46 -16 51 -24 264 -103
277 -103 5 0 -4 44 -21 98 -50 167 -117 460 -133 586 -3 22 -7 51 -9 65 -11
66 -16 110 -21 156 -3 28 -7 70 -10 95 -13 122 -17 218 -19 474 l-2 280 -55
12 c-30 7 -70 15 -89 18 -19 3 -57 10 -85 16 -27 5 -72 14 -100 19 -76 14
-224 48 -380 87 -415 104 -717 213 -887 320 -39 25 -53 30 -45 17z"/>
<path d="M5790 2493 c-47 -18 -94 -37 -105 -42 -166 -74 -612 -208 -888 -267
-40 -8 -81 -17 -92 -20 -11 -2 -36 -7 -55 -10 -33 -5 -52 -8 -110 -19 -41 -8
-141 -23 -200 -30 -30 -4 -68 -9 -85 -11 -16 -2 -50 -6 -75 -9 -127 -15 -341
-27 -517 -29 -73 0 -133 -4 -133 -7 0 -6 425 -222 505 -256 28 -12 84 -36 125
-54 41 -17 89 -37 105 -44 111 -48 345 -132 505 -181 270 -83 604 -159 618
-140 73 91 202 305 268 443 75 159 170 423 190 528 3 17 12 60 20 98 9 37 14
71 12 76 -2 4 -41 -7 -88 -26z"/>
<path d="M2501 2141 c-10 -6 -11 -65 -7 -277 3 -148 8 -287 10 -309 3 -22 7
-74 11 -115 3 -41 8 -88 10 -105 2 -16 7 -55 10 -85 4 -30 8 -62 10 -71 2 -9
6 -34 10 -55 12 -77 15 -99 20 -124 3 -14 7 -36 10 -50 6 -31 24 -111 38 -165
6 -22 11 -44 13 -50 15 -73 113 -373 122 -379 4 -2 31 -7 61 -10 29 -4 58 -9
63 -12 8 -5 4 69 -8 130 -19 102 -26 669 -11 841 15 155 15 156 33 290 10 73
60 354 69 385 2 8 7 30 10 48 3 19 7 39 8 45 2 11 -17 14 -173 31 -30 4 -71 8
-90 11 -19 3 -53 7 -75 10 -76 10 -120 17 -125 20 -3 2 -12 0 -19 -4z"/>
<path d="M3196 1928 c-3 -13 -12 -54 -20 -93 -14 -69 -23 -118 -32 -184 -2
-19 -6 -46 -9 -60 -10 -62 -14 -90 -20 -151 -3 -36 -8 -81 -10 -100 -22 -205
-22 -611 -1 -795 2 -11 7 -56 11 -100 5 -44 10 -83 11 -87 1 -5 2 -18 3 -29 1
-21 2 -22 194 -16 105 3 201 8 213 10 11 3 47 8 80 11 32 4 66 8 74 11 8 2 33
6 55 10 233 34 587 164 840 308 187 106 383 255 547 418 l78 76 -138 33 c-337
80 -675 192 -1042 346 -149 62 -553 264 -698 348 -62 36 -117 66 -122 66 -5 0
-12 -10 -14 -22z"/>
</g>
</svg>
