<?xml version="1.0" encoding="UTF-8" standalone="no"?>
<svg
   xmlns:dc="http://purl.org/dc/elements/1.1/"
   xmlns:cc="http://creativecommons.org/ns#"
   xmlns:rdf="http://www.w3.org/1999/02/22-rdf-syntax-ns#"
   xmlns:svg="http://www.w3.org/2000/svg"
   xmlns="http://www.w3.org/2000/svg"
   xmlns:sodipodi="http://sodipodi.sourceforge.net/DTD/sodipodi-0.dtd"
   xmlns:inkscape="http://www.inkscape.org/namespaces/inkscape"
   width="74"
   height="74"
   viewBox="0 0 74 74"
   version="1.1"
   id="svg136"
   sodipodi:docname="yarn_white.svg"
   inkscape:version="0.92.2 5c3e80d, 2017-08-06">
  <metadata
     id="metadata142">
    <rdf:RDF>
      <cc:Work
         rdf:about="">
        <dc:format>image/svg+xml</dc:format>
        <dc:type
           rdf:resource="http://purl.org/dc/dcmitype/StillImage" />
        <dc:title></dc:title>
      </cc:Work>
    </rdf:RDF>
  </metadata>
  <defs
     id="defs140" />
  <sodipodi:namedview
     pagecolor="#333333"
     bordercolor="#666666"
     borderopacity="1"
     objecttolerance="10"
     gridtolerance="10"
     guidetolerance="10"
     inkscape:pageopacity="0"
     inkscape:pageshadow="2"
     inkscape:window-width="1102"
     inkscape:window-height="830"
     id="namedview138"
     showgrid="false"
     inkscape:zoom="6.61"
     inkscape:cx="23.877835"
     inkscape:cy="33.827387"
     inkscape:window-x="0"
     inkscape:window-y="0"
     inkscape:window-maximized="0"
     inkscape:current-layer="layer1"
     inkscape:measure-start="32.5477,78.6374"
     inkscape:measure-end="39.637,14.3722"
     inkscape:pagecheckerboard="true"
     fit-margin-top="0"
     fit-margin-left="0"
     fit-margin-right="0"
     fit-margin-bottom="0"
     scale-x="1"
     showborder="false" />
  <g
     inkscape:groupmode="layer"
     id="layer1"
     inkscape:label="yarn"
     style="display:inline"
     transform="translate(-6.2263625,-8.4582622)">
    <g
       id="g3968"
       transform="rotate(28.012482,42.859585,48.317333)"
       style="fill:#ffffff;fill-opacity:1">
      <path
         inkscape:connector-curvature="0"
         id="path96"
         d="m 30.168867,68.420277 c -1.185,-0.948 -2.915,-0.755 -3.863,0.429 l -7.292,9.105 c -0.948,1.185 -0.757,2.915 0.428,3.864 0.507,0.405 1.113,0.602 1.716,0.602 0.805,0 1.604,-0.353 2.148,-1.03 l 7.292,-9.106 c 0.947,-1.188 0.756,-2.915 -0.429,-3.864 z"
         style="fill:#ffffff;fill-opacity:1" />
      <path
         inkscape:connector-curvature="0"
         id="path98"
         d="m 64.247851,15.981299 c -3.319,0 -6.015,2.692 -6.015,6.011 0,0.97 0.253,1.873 0.659,2.684 l -6.088,7.996 c -0.921,1.208 -0.688,2.932 0.521,3.852 0.496,0.378 1.081,0.562 1.661,0.562 0.831,0 1.647,-0.373 2.19,-1.083 l 6.159,-8.089 c 0.299,0.046 0.6,0.092 0.909,0.092 3.322,0 6.015,-2.692 6.015,-6.013 10e-4,-3.32 -2.691,-6.012 -6.011,-6.012 z"
         style="fill:#ffffff;fill-opacity:1" />
      <path
         inkscape:connector-curvature="0"
         id="path100"
         d="m 43.376131,76.215705 c -0.194,-1.51 -1.597,-2.568 -3.072,-2.381 -1.509,0.192 -2.571,1.567 -2.381,3.073 l 1.012,7.952 c 0.177,1.387 1.358,2.4 2.722,2.4 0.118,0 0.233,-0.007 0.352,-0.021 1.505,-0.192 2.57,-1.568 2.379,-3.073 z"
         style="fill:#ffffff;fill-opacity:1" />
      <path
         inkscape:connector-curvature="0"
         id="path102"
         d="m 32.54771,21.362592 c 0.002,0.093 -0.003,0.187 0.009,0.282 l 1.87,13.816 c 0.188,1.378 1.366,2.379 2.72,2.379 0.123,0 0.248,-0.008 0.372,-0.025 1.504,-0.204 2.558,-1.588 2.355,-3.092 l -1.87,-13.816 c -0.021,-0.148 -0.061,-0.29 -0.103,-0.43 0.304,-0.212 0.601,-0.441 0.871,-0.712 2.489,-2.486999 2.486,-6.518999 0,-9.004999 -2.487,-2.4869999 -6.517,-2.4869999 -9.004,0 -2.487,2.487 -2.489,6.519 0,9.004999 0.798,0.8 1.764,1.314 2.78,1.598 z"
         style="fill:#ffffff;fill-opacity:1" />
      <g
         id="g3933"
         style="fill:#ffffff;fill-opacity:1">
        <path
           style="fill:#ffffff;fill-opacity:1"
           d="m 43.48,58.788 c -0.275,-1.305 -0.524,-2.62 -0.716,-3.952 -0.158,-1.097 -0.302,-2.221 -0.437,-3.356 -2.538,0.223 -5.159,0.43 -7.818,0.548 0.8,2.146 1.625,4.216 2.421,6.169 1.336,0.129 2.627,0.245 3.834,0.363 0.904,0.089 1.812,0.161 2.716,0.228 z"
           id="path104"
           inkscape:connector-curvature="0" />
        <path
           style="fill:#ffffff;fill-opacity:1"
           d="m 31.904,52.116 c -6.08,0.131 -12.227,-0.285 -17.763,-2.014 -0.016,0.277 -0.024,0.559 -0.031,0.839 4.936,4.62 12.875,6.15 20.026,6.958 -0.749,-1.857 -1.506,-3.795 -2.232,-5.783 z"
           id="path106"
           inkscape:connector-curvature="0" />
        <path
           style="fill:#ffffff;fill-opacity:1"
           d="m 14.203,54.225 c 0.331,3.808 1.42,7.401 3.119,10.625 4.248,1.088 9.228,-0.415 13.24,-1.602 C 32.277,62.742 34,62.243 35.715,61.718 35.563,61.362 35.402,61.012 35.256,60.656 35.219,60.563 35.18,60.469 35.142,60.377 27.976,59.48 20.003,58.437 14.203,54.225 Z"
           id="path108"
           inkscape:connector-curvature="0" />
        <path
           style="fill:#ffffff;fill-opacity:1"
           d="m 45.885,51.159 c -0.355,0.03 -0.722,0.065 -1.084,0.098 0.089,0.753 0.183,1.495 0.279,2.225 0.198,1.484 0.456,2.95 0.757,4.401 6.645,-3.183 12.568,-7.359 17.595,-12.578 -5.306,3.147 -11.181,5.262 -17.547,5.854 z"
           id="path110"
           inkscape:connector-curvature="0" />
        <path
           style="fill:#ffffff;fill-opacity:1"
           d="m 49.166,59.042 c 7.079,0.102 14.078,-0.659 20.836,-2.801 0.233,-1.461 0.36,-2.956 0.36,-4.483 0,-3.124 -0.519,-6.127 -1.458,-8.934 -5.399,6.756 -12.069,12.259 -19.738,16.218 z"
           id="path112"
           inkscape:connector-curvature="0" />
        <path
           style="fill:#ffffff;fill-opacity:1"
           d="m 50.477,78.664 c 0.468,-0.144 0.935,-0.299 1.391,-0.465 -3.629,-4.997 -6.187,-10.716 -7.776,-16.819 -1.613,0.659 -3.258,1.283 -4.923,1.869 2.879,5.876 6.566,11.214 11.308,15.415 z"
           id="path114"
           inkscape:connector-curvature="0" />
        <path
           style="fill:#ffffff;fill-opacity:1"
           d="M 30.914,49.303 C 28.567,42.379 26.791,34.973 27.143,28.01 20.415,32.292 15.627,39.347 14.4,47.569 c 4.728,1.514 9.865,1.762 14.788,1.742 0.571,-0.003 1.148,-0.006 1.726,-0.008 z"
           id="path116"
           inkscape:connector-curvature="0" />
        <path
           style="fill:#ffffff;fill-opacity:1"
           d="m 36.777,64.066 c -2.949,0.967 -5.942,1.812 -8.923,2.497 -2.901,0.667 -5.944,1.25 -8.893,1.021 5.065,7.43 13.594,12.312 23.265,12.312 1.833,0 3.62,-0.183 5.355,-0.516 -4.487,-4.278 -8.047,-9.539 -10.804,-15.314 z"
           id="path118"
           inkscape:connector-curvature="0" />
        <path
           style="fill:#ffffff;fill-opacity:1"
           d="m 42.058,49.013 c -0.822,-8.355 -0.773,-17.416 1.871,-25.335 -0.564,-0.033 -1.131,-0.056 -1.703,-0.056 -4.479,0 -8.709,1.051 -12.467,2.913 -0.767,7.314 1.209,15.382 3.764,22.757 2.841,-0.024 5.707,-0.084 8.535,-0.279 z"
           id="path120"
           inkscape:connector-curvature="0" />
        <path
           style="fill:#ffffff;fill-opacity:1"
           d="m 45.885,48.659 c 8.221,-1.001 15.401,-4.354 21.636,-9.227 -3.977,-8.14 -11.759,-14.078 -21.034,-15.488 -2.723,7.716 -2.744,16.683 -1.948,24.859 0.45,-0.048 0.901,-0.091 1.346,-0.144 z"
           id="path122"
           inkscape:connector-curvature="0" />
        <path
           style="fill:#ffffff;fill-opacity:1"
           d="m 46.714,61.495 c 1.578,5.706 4.048,11.047 7.523,15.71 7.41,-3.504 13.038,-10.142 15.18,-18.205 -7.373,2.146 -15.009,2.816 -22.703,2.495 z"
           id="path126"
           inkscape:connector-curvature="0" />
      </g>
    </g>
  </g>
</svg>
